<svg xmlns="http://www.w3.org/2000/svg" width="23.999" height="32" viewBox="0 0 23.999 32">
  <path id="_2x_cam" data-name="@2x cam" d="M-1347.592,32a1.98,1.98,0,0,1-1.822-1.174,1.977,1.977,0,0,1,.315-2.144l4.025-4.6A13.975,13.975,0,0,0-1338,26a13.982,13.982,0,0,0,7.074-1.917l4.023,4.6a1.981,1.981,0,0,1,.317,2.144A1.98,1.98,0,0,1-1328.408,32Zm0-2s0,0,0,0h19.184l-2.993-3.422A16,16,0,0,1-1338,28a16.019,16.019,0,0,1-6.6-1.422ZM-1350,12a12,12,0,0,1,12-12,12,12,0,0,1,12,12,12,12,0,0,1-12,12A12,12,0,0,1-1350,12Zm2,0a10.011,10.011,0,0,0,10,10,10.01,10.01,0,0,0,10-10,10.011,10.011,0,0,0-10-10A10.011,10.011,0,0,0-1348,12Zm6,0a4,4,0,0,1,4-4,4,4,0,0,1,4,4,4,4,0,0,1-4,4A4,4,0,0,1-1342,12Zm2,0a2,2,0,0,0,2,2,2,2,0,0,0,2-2,2,2,0,0,0-2-2A2,2,0,0,0-1340,12Zm-.115-7.717a7.943,7.943,0,0,1,4.226,0l-.772,1.868a5.988,5.988,0,0,0-2.68,0Z" transform="translate(1350)" fill="#007a94"/>
</svg>
