<svg xmlns="http://www.w3.org/2000/svg" width="16" height="16" viewBox="0 0 16 16">
  <path id="_1x_emergency" data-name="@1x emergency" d="M-1350,16V15a2,2,0,0,1,2-2h1V9a5,5,0,0,1,5-5,5,5,0,0,1,5,5v4h1a2,2,0,0,1,2,2v1Zm1-1h14a1,1,0,0,0-1-1h-12A1,1,0,0,0-1349,15Zm3-2h8V12h-8Zm0-4v2h8V9a4,4,0,0,0-4-4A4,4,0,0,0-1346,9Zm7.267-5.225a.5.5,0,0,1-.182-.682l1-1.732a.5.5,0,0,1,.433-.248.5.5,0,0,1,.251.067.5.5,0,0,1,.182.683l-1,1.731a.5.5,0,0,1-.433.249A.483.483,0,0,1-1338.734,3.775Zm-7.215-.182-1-1.731a.5.5,0,0,1,.181-.683.5.5,0,0,1,.251-.067.5.5,0,0,1,.433.248l1,1.732a.5.5,0,0,1-.182.682.49.49,0,0,1-.251.068A.5.5,0,0,1-1345.949,3.593ZM-1342.5,2.5V.5a.5.5,0,0,1,.5-.5.5.5,0,0,1,.5.5v2a.5.5,0,0,1-.5.5A.5.5,0,0,1-1342.5,2.5Z" transform="translate(1350)" fill="#fff"/>
</svg>
