<svg xmlns="http://www.w3.org/2000/svg" width="32" height="32" viewBox="0 0 32 32">
  <path id="_2x_profile" data-name="@2x profile" d="M2204,16a16,16,0,1,1,16,16A16,16,0,0,1,2204,16Zm10.2,12.728a13.844,13.844,0,0,0,11.6,0c-.635-5.218-3.312-8.728-5.8-8.728S2214.838,23.51,2214.2,28.728Zm13.493-1.046a14,14,0,1,0-15.392,0c.906-5.56,3.989-9.682,7.7-9.682S2226.79,22.122,2227.7,27.682ZM2215,11a5,5,0,1,1,5,5A5,5,0,0,1,2215,11Zm2,0a3,3,0,1,0,3-3A3,3,0,0,0,2217,11Z" transform="translate(-2204.001)" fill="#444"/>
</svg>
