<svg xmlns="http://www.w3.org/2000/svg" width="33.008" height="33" viewBox="0 0 33.008 33">
  <path id="_2x_call" data-name="@2x call" d="M2010.527-64.013a30.76,30.76,0,0,1-17.751-8.735,30.8,30.8,0,0,1-8.732-17.762,4.845,4.845,0,0,1,1.177-3.874A4.845,4.845,0,0,1,1988.838-96h4.858a4.845,4.845,0,0,1,4.842,4.023c.049.353.112.725.194,1.082a16.9,16.9,0,0,0,.628,2.129,3.232,3.232,0,0,1-1.615,4l-.741.34a21.382,21.382,0,0,0,3.227,4.311,21.2,21.2,0,0,0,4.311,3.227l.353-.742a3.226,3.226,0,0,1,4-1.613,15.726,15.726,0,0,0,2.113.626,4.974,4.974,0,0,0,1.082.194A4.845,4.845,0,0,1,2016-73.7v4.844a4.839,4.839,0,0,1-1.615,3.616,4.829,4.829,0,0,1-3.227,1.228q-.157.012-.314.012T2010.527-64.013ZM1986.88-92.929a2.605,2.605,0,0,0-.655,2.131,28.872,28.872,0,0,0,8.166,16.571,28.822,28.822,0,0,0,16.488,8.1,2.609,2.609,0,0,0,.391.029,2.632,2.632,0,0,0,1.759-.679,2.659,2.659,0,0,0,.866-1.975l-.146-4.934a2.643,2.643,0,0,0-2.118-2.639c-.41-.061-.835-.137-1.24-.23a18.962,18.962,0,0,1-2.417-.706l-.88-.32-1.4,3.11a.625.625,0,0,1-.369.326.6.6,0,0,1-.23.045.631.631,0,0,1-.185-.027A22.384,22.384,0,0,1,1994.112-84.9a.634.634,0,0,1,.012-.49.619.619,0,0,1,.324-.347l3.1-1.463-.329-.871a17.078,17.078,0,0,1-.7-2.347l-.081-.342a3.538,3.538,0,0,1-.137-.765v-.112l-.027-.108a2.618,2.618,0,0,0-2.6-2.047h-4.856A2.615,2.615,0,0,0,1986.88-92.929Zm27.52,11.815a1.113,1.113,0,0,1-1.087-1.188l0-.889a10.117,10.117,0,0,0-10.1-10.107h-.862a1.138,1.138,0,0,1-1.224-1,1.093,1.093,0,0,1,.254-.808,1.1,1.1,0,0,1,.754-.391l1.078,0a12.324,12.324,0,0,1,12.29,12.308v1.12a1.088,1.088,0,0,1-1.094.958Zm-7.49-2.077a3.7,3.7,0,0,0-3.7-3.7,1.1,1.1,0,0,1-1.1-1.1,1.1,1.1,0,0,1,1.1-1.1,5.912,5.912,0,0,1,5.9,5.9,1.1,1.1,0,0,1-1.1,1.1A1.1,1.1,0,0,1,2006.91-83.191Z" transform="translate(-1983.492 96.501)" fill="#fff" stroke="rgba(0,0,0,0)" stroke-width="1"/>
</svg>
