<svg xmlns="http://www.w3.org/2000/svg" width="12" height="15" viewBox="0 0 12 15">
  <path id="_1x_handicap" data-name="@1x handicap" d="M-259.754-3266.814a4.953,4.953,0,0,1-2.106-2.978,4.9,4.9,0,0,1,.561-3.69,5.075,5.075,0,0,1,1.51-1.579,1.325,1.325,0,0,1,.133-.083s.008.01.008.02.015.283.034.606l.034.584-.2.2a3.871,3.871,0,0,0-.971,1.524,3.919,3.919,0,0,0-.18.758,5.555,5.555,0,0,0,0,1,3.908,3.908,0,0,0,.633,1.677,4,4,0,0,0,2.124,1.571,4,4,0,0,0,2.406-.041,3.937,3.937,0,0,0,2.394-2.3,4.066,4.066,0,0,0,.16-.52.184.184,0,0,1,.023-.073c.006,0,.677,1.15.689,1.186a3.028,3.028,0,0,1-.274.544,5,5,0,0,1-2.876,2.212,4.971,4.971,0,0,1-1.378.194A4.971,4.971,0,0,1-259.754-3266.814Zm8.824-1.383a.852.852,0,0,1-.446-.272c-.032-.041-.464-.779-1.651-2.831l-.155-.266-2.23,0c-1.561,0-2.252-.008-2.3-.018a1.657,1.657,0,0,1-.362-.114,1.291,1.291,0,0,1-.726-.9c-.019-.086-.038-.357-.094-1.329l-.082-1.418c-.074-1.248-.084-1.455-.078-1.559a1.25,1.25,0,0,1,.379-.847,1.244,1.244,0,0,1,.629-.342l.088-.018c.013,0,.108,0,.211,0a1.077,1.077,0,0,1,.473.1,1.406,1.406,0,0,1,.542.443,1.4,1.4,0,0,1,.215.527c.009.068.05.561.092,1.131l.009.123,1.307.006a6.791,6.791,0,0,1,1.367.031.6.6,0,0,1,.393.474.606.606,0,0,1-.466.672c-.059.015-.238.017-1.3.017h-1.229l.007.3c0,.164.012.389.016.5l.007.2,1.708,0a16.86,16.86,0,0,1,1.778.024.824.824,0,0,1,.441.313c.023.035.553.942,1.177,2.015.907,1.562,1.14,1.97,1.167,2.049a.765.765,0,0,1-.464.973.821.821,0,0,1-.261.039A.706.706,0,0,1-250.93-3268.2Zm-7.355-10.236a1.346,1.346,0,0,1-.862-.887,1.323,1.323,0,0,1,1.062-1.667,1.591,1.591,0,0,1,.479.012,1.315,1.315,0,0,1,1.03,1.038.96.96,0,0,1,.021.292,1.159,1.159,0,0,1-.138.545,1.278,1.278,0,0,1-.595.592,1.281,1.281,0,0,1-.579.141A1.39,1.39,0,0,1-258.285-3278.433Z" transform="translate(262 3281)" fill="#007a94"/>
</svg>
