<svg xmlns="http://www.w3.org/2000/svg" width="16" height="16" viewBox="0 0 16 16">
  <path id="_1x_setting" data-name="@1x setting" d="M-1340.792,16h-2.4a.8.8,0,0,1-.76-.545l-.5-1.512-1.424.712a.8.8,0,0,1-.92-.151l-1.7-1.7a.8.8,0,0,1-.152-.912l.713-1.424-1.513-.5A.8.8,0,0,1-1350,9.2V6.8a.8.8,0,0,1,.544-.752l1.513-.5-.713-1.424a.8.8,0,0,1,.152-.92l1.7-1.7a.8.8,0,0,1,.912-.152l1.424.712.5-1.512A.8.8,0,0,1-1343.2,0h2.4a.8.8,0,0,1,.752.544l.5,1.512,1.424-.712a.8.8,0,0,1,.92.152l1.7,1.7a.8.8,0,0,1,.151.912l-.712,1.424,1.512.5a.8.8,0,0,1,.544.76V9.2a.8.8,0,0,1-.544.752l-1.512.5.712,1.424a.8.8,0,0,1-.151.92l-1.7,1.7a.8.8,0,0,1-.9.151l-1.424-.712-.5,1.512a.8.8,0,0,1-.758.545Zm-3.281-2.98a1,1,0,0,1,.566.608l.457,1.373h2.116l.457-1.373a1,1,0,0,1,.566-.608,1,1,0,0,1,.83.03l1.281.64,1.5-1.5-.645-1.291a1,1,0,0,1-.03-.83,1,1,0,0,1,.608-.566L-1335,9.05V6.942l-1.372-.457a1,1,0,0,1-.608-.566,1,1,0,0,1,.03-.83l.643-1.286-1.5-1.5-1.292.645a1,1,0,0,1-.83.03,1,1,0,0,1-.566-.608L-1340.95,1h-2.108l-.458,1.373a1,1,0,0,1-.566.608,1,1,0,0,1-.83-.03l-1.286-.643-1.5,1.5.645,1.292a1,1,0,0,1,.03.83,1,1,0,0,1-.608.566L-1349,6.95V9.058l1.372.458a1,1,0,0,1,.608.565,1,1,0,0,1-.03.831l-.643,1.285,1.5,1.5,1.292-.645a.993.993,0,0,1,.447-.106A1,1,0,0,1-1344.073,13.02ZM-1346,8a4,4,0,0,1,4-4,4,4,0,0,1,4,4,4,4,0,0,1-4,4A4,4,0,0,1-1346,8Zm1,0a3,3,0,0,0,3,3,3,3,0,0,0,3-3,3,3,0,0,0-3-3A3,3,0,0,0-1345,8Z" transform="translate(1350)" fill="#007a94"/>
</svg>
