<svg xmlns="http://www.w3.org/2000/svg" width="17" height="17" viewBox="0 0 17 17">
  <path id="_1x_x-ray" data-name="@1x x-ray" d="M-1348,16a2,2,0,0,1-2-2V2a2,2,0,0,1,2-2h12a2,2,0,0,1,2,2V14a2,2,0,0,1-2,2Zm-1-14V14a1,1,0,0,0,1,1h12a1,1,0,0,0,1-1V2a1,1,0,0,0-1-1h-12A1,1,0,0,0-1349,2Zm5.5,12a.5.5,0,0,1-.5-.5v-1a.5.5,0,0,1,.5-.5h3a.5.5,0,0,1,.5.5v1a.5.5,0,0,1-.5.5Zm4.5-2.5a.5.5,0,0,1,.5-.5,1.5,1.5,0,0,0,1.5-1.5.5.5,0,0,1,.5-.5.5.5,0,0,1,.5.5,2.5,2.5,0,0,1-2.5,2.5A.5.5,0,0,1-1339,11.5Zm-9-2a.5.5,0,0,1,.5-.5.5.5,0,0,1,.5.5,1.5,1.5,0,0,0,1.5,1.5.5.5,0,0,1,.5.5.5.5,0,0,1-.5.5A2.5,2.5,0,0,1-1348,9.5Zm4.5,1.5a.5.5,0,0,1-.5-.5v-1a.5.5,0,0,1,.5-.5h3a.5.5,0,0,1,.5.5v1a.5.5,0,0,1-.5.5Zm4.5-2.5a.5.5,0,0,1,.5-.5,1.5,1.5,0,0,0,1.5-1.5.5.5,0,0,1,.5-.5.5.5,0,0,1,.5.5,2.5,2.5,0,0,1-2.5,2.5A.5.5,0,0,1-1339,8.5Zm-9-2a.5.5,0,0,1,.5-.5.5.5,0,0,1,.5.5,1.5,1.5,0,0,0,1.5,1.5.5.5,0,0,1,.5.5.5.5,0,0,1-.5.5A2.5,2.5,0,0,1-1348,6.5Zm4.5,1.5a.5.5,0,0,1-.5-.5v-1a.5.5,0,0,1,.5-.5h3a.5.5,0,0,1,.5.5v1a.5.5,0,0,1-.5.5Zm4.5-2.5a.5.5,0,0,1,.5-.5,1.5,1.5,0,0,0,1.5-1.5.5.5,0,0,1,.5-.5.5.5,0,0,1,.5.5,2.5,2.5,0,0,1-2.5,2.5A.5.5,0,0,1-1339,5.5Zm-9-2a.5.5,0,0,1,.5-.5.5.5,0,0,1,.5.5,1.5,1.5,0,0,0,1.5,1.5.5.5,0,0,1,.5.5.5.5,0,0,1-.5.5A2.5,2.5,0,0,1-1348,3.5Zm4.5,1.5a.5.5,0,0,1-.5-.5v-1a.5.5,0,0,1,.5-.5h3a.5.5,0,0,1,.5.5v1a.5.5,0,0,1-.5.5Z" transform="translate(1350.5 0.5)" fill="#007a94" stroke="rgba(0,0,0,0)" stroke-width="1"/>
</svg>
