<svg xmlns="http://www.w3.org/2000/svg" width="10" height="10" viewBox="0 0 10 10">
  <g id="그룹_2" data-name="그룹 2" transform="translate(0)">
    <path id="패스_845" data-name="패스 845" d="M-2700.853-2331.856-2705-2336l-4.147,4.147a.5.5,0,0,1-.353.147.5.5,0,0,1-.354-.147.5.5,0,0,1,0-.708l4.146-4.146-4.146-4.146a.5.5,0,0,1,0-.708.5.5,0,0,1,.707,0l4.147,4.147,4.147-4.147a.5.5,0,0,1,.707,0,.5.5,0,0,1,0,.708l-4.146,4.146,4.146,4.146a.5.5,0,0,1,0,.708.5.5,0,0,1-.353.147A.5.5,0,0,1-2700.853-2331.856Z" transform="translate(2710 2341.71)" fill="#f0f0f0"/>
  </g>
</svg>
