<svg xmlns="http://www.w3.org/2000/svg" width="92" height="64" viewBox="0 0 92 64">
  <path id="_1x_H-Connect_logo" data-name="@1x H-Connect logo" d="M-1312.5-491c0-3.314,2.351-6,5.25-6a5.187,5.187,0,0,1,4.6,3.168l-1.28.788a3.736,3.736,0,0,0-3.321-2.457c-2.068,0-3.75,2.02-3.75,4.5s1.683,4.5,3.75,4.5a3.734,3.734,0,0,0,3.321-2.455l1.28.788a5.189,5.189,0,0,1-4.6,3.168C-1310.149-485-1312.5-487.687-1312.5-491Zm-56,0c0-3.314,2.353-6,5.25-6s5.251,2.686,5.251,6-2.351,6-5.251,6S-1368.5-487.687-1368.5-491Zm1.5,0c0,2.482,1.683,4.5,3.748,4.5s3.75-2.018,3.75-4.5-1.68-4.5-3.75-4.5S-1367-493.482-1367-491Zm-15,0c0-3.314,2.352-6,5.25-6a5.186,5.186,0,0,1,4.6,3.168l-1.28.788a3.736,3.736,0,0,0-3.323-2.457c-2.066,0-3.75,2.02-3.75,4.5s1.683,4.5,3.75,4.5a3.735,3.735,0,0,0,3.323-2.455l1.28.788a5.189,5.189,0,0,1-4.6,3.168C-1379.648-485-1382-487.687-1382-491Zm86.749-2.812h1.5v6.937l-1.5,1.5Zm-28.5,8.437h-1.5v-9.844l1.5-1.406h7.5v1.406h-7.5v8.438h7.5l-1.5,1.406Zm-8.25,0h-.151l-6.6-7.734v-2.234l6.75,7.911v-9.192h1.5v11.25Zm-12.2,0-7.8-9.192v9.192h-1.5v-11.25h1.651l8.1,9.493v-7.992l1.5-1.5v9.75l-1.5,1.5Zm21.949-4.921V-491.7h4.5l-1.5,1.406Zm23.25-4.923v-1.406h9v1.406ZM-1330-519v-8h-12v8h-2v-10h16v8h5l1-1v-25h-2v12h-24v-10h2v8h20v-12h6v28l-2,2Zm-22,0v-28l2-2h8v8h12v-8h2v10h-16v-8h-5l-1,1v25h2s-6-9,0-12,24,0,24,0v10h-2v-8h-20v12Z" transform="translate(1382 549)" fill="#444"/>
</svg>
