<svg xmlns="http://www.w3.org/2000/svg" width="138" height="95.999" viewBox="0 0 138 95.999">
  <path id="_1x_H-Connect_logo" data-name="@1x H-Connect logo" d="M-1277.75-462c0-4.971,3.526-9,7.876-9a7.779,7.779,0,0,1,6.9,4.752l-1.92,1.182a5.605,5.605,0,0,0-4.981-3.685c-3.1,0-5.626,3.029-5.626,6.75s2.524,6.75,5.626,6.75a5.6,5.6,0,0,0,4.981-3.683l1.92,1.182a7.783,7.783,0,0,1-6.9,4.752C-1274.223-453-1277.75-457.032-1277.75-462Zm-84,0c0-4.971,3.529-9,7.874-9s7.878,4.028,7.878,9-3.526,9-7.878,9S-1361.751-457.032-1361.751-462Zm2.252,0c0,3.723,2.524,6.75,5.622,6.75s5.626-3.027,5.626-6.75-2.522-6.75-5.626-6.75S-1359.5-465.723-1359.5-462Zm-22.5,0c0-4.971,3.529-9,7.876-9a7.78,7.78,0,0,1,6.9,4.752l-1.92,1.182a5.605,5.605,0,0,0-4.984-3.685c-3.1,0-5.624,3.029-5.624,6.75s2.524,6.75,5.624,6.75a5.6,5.6,0,0,0,4.984-3.683l1.92,1.182a7.785,7.785,0,0,1-6.9,4.752C-1378.471-453-1382-457.032-1382-462Zm130.124-4.217h2.251v10.406l-2.251,2.249Zm-42.748,12.655h-2.249v-14.766l2.249-2.109h11.25v2.109h-11.25v12.657h11.25l-2.251,2.109Zm-12.374,0h-.227l-9.9-11.6v-3.351L-1307-456.651V-470.44h2.249v16.875Zm-18.3,0-11.7-13.789v13.789h-2.247V-470.44h2.476l12.147,14.24v-11.988l2.252-2.252v14.625l-2.252,2.249Zm32.923-7.382v-2.109h6.75l-2.249,2.109Zm34.875-7.384v-2.109h13.5v2.109ZM-1304-504v-12h-18v12h-3v-15h24v12h7.5l1.5-1.5V-546h-3v18h-36v-15h3v12h30v-18h9v42l-3,3Zm-33,0v-42l3-3h12v12h18v-12h3v15h-24v-12h-7.5l-1.5,1.5V-507h3v-18h36v15h-3v-12h-30v18Z" transform="translate(1382 549)" fill="#444"/>
</svg>
