<svg xmlns="http://www.w3.org/2000/svg" width="32" height="32.008" viewBox="0 0 32 32.008">
  <path id="_2x_cam_off" data-name="@2x cam off" d="M4638.41,15032.009a2.1,2.1,0,0,1-.648-.105l1.9-1.908h17.933l-2.992-3.414a16.082,16.082,0,0,1-12.008.482l1.591-1.59a13.947,13.947,0,0,0,10.892-1.387l4.025,4.605a2,2,0,0,1-1.508,3.316Zm-6.121-.3a1,1,0,0,1,0-1.408l30.009-30a1,1,0,1,1,1.409,1.408l-30,30a1,1,0,0,1-1.417,0Zm13.554-7.893,1.824-1.816H4648a10.009,10.009,0,0,0,10-9.994c0-.113,0-.227-.008-.34l1.816-1.816A12.185,12.185,0,0,1,4660,15012a12.01,12.01,0,0,1-12,12A12.229,12.229,0,0,1,4645.843,15023.813Zm-7.116-4.2a12,12,0,0,1,16.893-16.893l-1.425,1.426a9.9,9.9,0,0,0-6.2-2.148,10.01,10.01,0,0,0-10,10,9.868,9.868,0,0,0,2.148,6.188l-1.425,1.424v.008Zm5.737-5.742a4,4,0,0,1,5.411-5.4l-1.553,1.561a1.57,1.57,0,0,0-.324-.031,2,2,0,0,0-2,2.006,2.3,2.3,0,0,0,.022.316l-1.553,1.561Zm3.55-7.871a5.842,5.842,0,0,0-1.35.15l-.776-1.869a8.144,8.144,0,0,1,2.118-.285,8,8,0,0,1,2.11.285l-.776,1.869A5.552,5.552,0,0,0,4648.014,15006Z" transform="translate(-4632.001 -15000.001)" fill="#888"/>
</svg>
