<svg xmlns="http://www.w3.org/2000/svg" width="15" height="15" viewBox="0 0 15 15">
  <path id="_1x_clock" data-name="@1x clock" d="M-1350,7.5a7.5,7.5,0,0,1,7.5-7.5,7.5,7.5,0,0,1,7.5,7.5,7.5,7.5,0,0,1-7.5,7.5A7.5,7.5,0,0,1-1350,7.5Zm1,0a6.508,6.508,0,0,0,6.5,6.5,6.508,6.508,0,0,0,6.5-6.5,6.508,6.508,0,0,0-6.5-6.5A6.507,6.507,0,0,0-1349,7.5Zm9.215,3.457L-1343,7.732l.007-.006-.007-.007V3.5a.5.5,0,0,1,.5-.5.5.5,0,0,1,.5.5V7.317l2.922,2.933a.5.5,0,0,1,0,.707.5.5,0,0,1-.354.147A.5.5,0,0,1-1339.786,10.957Z" transform="translate(1350)" fill="#fff"/>
</svg>
