<svg xmlns="http://www.w3.org/2000/svg" width="16" height="16" viewBox="0 0 16 16">
  <path id="_1x_logout" data-name="@1x logout" d="M-1348,16a2,2,0,0,1-2-2V2a2,2,0,0,1,2-2h5a2,2,0,0,1,2,2V4.5a.5.5,0,0,1-.5.5.5.5,0,0,1-.5-.5V2a1,1,0,0,0-1-1h-5a1,1,0,0,0-1,1V14a1,1,0,0,0,1,1h5a1,1,0,0,0,1-1V11.5a.5.5,0,0,1,.5-.5.5.5,0,0,1,.5.5V14a2,2,0,0,1-2,2Zm9.162-4.144a.461.461,0,0,1,0-.7l2.951-2.654h-8.613a.5.5,0,0,1-.5-.5.5.5,0,0,1,.5-.5h8.614l-2.952-2.654a.462.462,0,0,1,0-.7.6.6,0,0,1,.779,0l3.9,3.5a.462.462,0,0,1,0,.7l-3.9,3.5a.585.585,0,0,1-.39.145A.583.583,0,0,1-1338.838,11.856Z" transform="translate(1350)" fill="#940045"/>
</svg>
