<svg xmlns="http://www.w3.org/2000/svg" width="16" height="16" viewBox="0 0 16 16">
  <path id="패스_845" data-name="패스 845" d="M8.8,2.826a1,1,0,0,1,1.894,0l1.266,3.8a1,1,0,0,0,.92.687l3.893.106a1.01,1.01,0,0,1,.6,1.793L14.2,11.791a1.014,1.014,0,0,0-.335,1.059l1.12,4a1,1,0,0,1-1.547,1.091l-3.106-2.269a.992.992,0,0,0-1.171,0L6.05,17.943A1,1,0,0,1,4.5,16.852l1.12-4a1.014,1.014,0,0,0-.335-1.059L2.116,9.211a1.01,1.01,0,0,1,.6-1.793l3.893-.106a1,1,0,0,0,.92-.687Z" transform="translate(-1.742 -2.139)" fill="#940045"/>
</svg>
