<svg id="_버튼_즐겨찾기" data-name="[버튼] 즐겨찾기" xmlns="http://www.w3.org/2000/svg" width="12" height="12" viewBox="0 0 12 12">
  <path id="패스_710" data-name="패스 710" d="M11.764,15.034a.934.934,0,0,1-.414-.1l-.067-.034L8.647,13.334,6.012,14.9l-.068.035a.944.944,0,0,1-.976-.1,1.029,1.029,0,0,1-.376-1.01l.614-3.106L4.178,9.751,2.963,8.6l-.05-.055a1.037,1.037,0,0,1-.218-1,.979.979,0,0,1,.744-.675L3.5,6.856,6.52,6.508,7.769,3.624l.038-.074a.942.942,0,0,1,1.68,0l.038.075,1.25,2.886,3.016.349.067.011a.981.981,0,0,1,.743.677,1.038,1.038,0,0,1-.218,1l-.05.052L12.089,10.73l.614,3.1a1.035,1.035,0,0,1-.379,1.016.928.928,0,0,1-.561.188ZM6.535,10.641c-.025.122-.3,1.5-.542,2.732l2.337-1.39a.619.619,0,0,1,.635,0L11.3,13.372l-.545-2.746a.685.685,0,0,1,.2-.63l1.989-1.888L10.271,7.8a.644.644,0,0,1-.514-.391L8.648,4.85,7.541,7.407a.649.649,0,0,1-.514.391l-2.674.308L6.341,9.995a.684.684,0,0,1,.194.646Z" transform="translate(-2.648 -3.034)" fill="#888"/>
</svg>
