<svg xmlns="http://www.w3.org/2000/svg" width="31.999" height="32.007" viewBox="0 0 31.999 32.007">
  <path id="_2x_mic_off" data-name="@2x mic off" d="M4651,15032.007h-10.011a1,1,0,0,1,0-2.006H4644v-4.68c-.265-.1-.529-.2-.771-.309l1.539-1.541a10.016,10.016,0,0,0,13.229-9.465,1,1,0,1,1,2.006,0,12.057,12.057,0,0,1-8.007,11.322V15030h3.009a1,1,0,0,1,0,2.006Zm-5-2.006H4650v-4.168a11.2,11.2,0,0,1-2,.182,11.073,11.073,0,0,1-2-.182Zm-13.712,1.711a1,1,0,0,1,0-1.416l30-30a.99.99,0,0,1,1.409,0,1,1,0,0,1,0,1.418l-30,30a1,1,0,0,1-.708.295A.965.965,0,0,1,4632.3,15031.712Zm6.174-10.426a11.861,11.861,0,0,1-2.474-7.279,1,1,0,1,1,2,0,9.875,9.875,0,0,0,1.906,5.855l-1.425,1.424Zm9.769-1.281.008-.008,5.752-5.75a6.027,6.027,0,0,1-5.752,5.758Zm-5.458-3.029a6.031,6.031,0,0,1-.776-2.969V15006a6,6,0,0,1,11.994-.232l-2,2V15006a4,4,0,0,0-8,0v8.008a3.925,3.925,0,0,0,.278,1.477l-1.493,1.492Z" transform="translate(-4632.001 -15000)" fill="#888"/>
</svg>
