<svg xmlns="http://www.w3.org/2000/svg" width="16" height="13.998" viewBox="0 0 16 13.998">
  <g id="_1x_volume" data-name="@1x volume" transform="translate(-970 -97)">
    <path id="mute" d="M-1365.853-37.148a.5.5,0,0,1,0-.707l2.146-2.147-2.146-2.146A.5.5,0,0,1-1366-42.5a.5.5,0,0,1,.147-.354.5.5,0,0,1,.707,0l2.147,2.146,2.146-2.146a.5.5,0,0,1,.707,0,.5.5,0,0,1,0,.707L-1362.292-40l2.146,2.146a.5.5,0,0,1,0,.707.5.5,0,0,1-.707,0L-1363-39.295l-2.147,2.146a.494.494,0,0,1-.353.147A.5.5,0,0,1-1365.853-37.148Z" transform="translate(2346 144)" fill="#888"/>
    <path id="vol" d="M-1343,14.516V2.523h0l-2.814,3H-1349v6h3.188l2.812,3m-.008,1a.978.978,0,0,1-.721-.318l-2.516-2.68H-1349a1,1,0,0,1-1-1v-6a1,1,0,0,1,1-1h2.753l2.518-2.683a1,1,0,0,1,1.729.685V14.517A1,1,0,0,1-1343.007,15.519Z" transform="translate(2320 95.48)" fill="#888"/>
  </g>
</svg>
