<svg xmlns="http://www.w3.org/2000/svg" width="31.999" height="31.999" viewBox="0 0 31.999 31.999">
  <path id="_2x_refuse" data-name="@2x refuse" d="M4632.3,15031.7a1,1,0,0,1,0-1.416l29.993-29.994a1,1,0,0,1,1.417,0,1.015,1.015,0,0,1,0,1.418l-30,29.992a.989.989,0,0,1-1.409,0Zm26.233.279a30.67,30.67,0,0,1-15.547-6.738l1.552-1.551a28.7,28.7,0,0,0,14.342,6.172,2.34,2.34,0,0,0,.392.029,2.6,2.6,0,0,0,1.756-.678,2.657,2.657,0,0,0,.866-1.975l-.144-4.936a2.636,2.636,0,0,0-2.116-2.637q-.645-.091-1.244-.227a18.2,18.2,0,0,1-2.419-.709l-.874-.324-1.4,3.113a.6.6,0,0,1-.369.324.632.632,0,0,1-.233.045.733.733,0,0,1-.182-.023,22.554,22.554,0,0,1-4.076-2.465l1.636-1.635a19.992,19.992,0,0,0,2.079,1.35l.347-.746a3.255,3.255,0,0,1,2.9-1.809,3.207,3.207,0,0,1,1.1.2,16.4,16.4,0,0,0,2.118.625l.105.031h.015a3.906,3.906,0,0,0,.956.166,4.857,4.857,0,0,1,3.9,4.717v4.838a4.8,4.8,0,0,1-1.612,3.617,4.851,4.851,0,0,1-3.226,1.229c-.105.008-.211.008-.316.008S4658.638,15031.991,4658.532,15031.983Zm-26.49-26.488a4.821,4.821,0,0,1,4.771-5.488h4.967a4.83,4.83,0,0,1,4.763,4.018,9.229,9.229,0,0,0,.2,1.086,16.7,16.7,0,0,0,.626,2.125,3.218,3.218,0,0,1-1.613,4l-.738.348a19.488,19.488,0,0,0,1.236,1.93l-1.658,1.658a21.754,21.754,0,0,1-2.472-4.07.647.647,0,0,1,.008-.49.655.655,0,0,1,.324-.346l3.1-1.463-.332-.873a17.505,17.505,0,0,1-.7-2.344l-.083-.34-.022-.1-.008-.008a3.608,3.608,0,0,1-.105-.662v-.113l-.022-.105a2.634,2.634,0,0,0-2.592-2.051h-4.861a2.623,2.623,0,0,0-1.943.867,2.567,2.567,0,0,0-.655,2.133,28.741,28.741,0,0,0,6.081,14.236l-1.561,1.561A30.812,30.812,0,0,1,4632.042,15005.5Z" transform="translate(-4631.999 -15000)" fill="#940045"/>
</svg>
