<svg xmlns="http://www.w3.org/2000/svg" width="16" height="13.998" viewBox="0 0 16 13.998">
  <g id="_1x_volume" data-name="@1x volume" transform="translate(-970 -97)">
    <g id="gauge">
      <path id="패스_845" data-name="패스 845" d="M-1337.052,12.947A6.979,6.979,0,0,0-1335,8a6.979,6.979,0,0,0-2.052-4.948l.709-.709A7.975,7.975,0,0,1-1334,8a7.975,7.975,0,0,1-2.343,5.657Z" transform="translate(2320 96)" fill="#fff"/>
      <path id="패스_846" data-name="패스 846" d="M-1340.466,11.312A4.985,4.985,0,0,0-1339,7.778a4.984,4.984,0,0,0-1.466-3.534l.709-.709A5.981,5.981,0,0,1-1338,7.778a5.982,5.982,0,0,1-1.757,4.243Z" transform="translate(2322 96.222)" fill="#fff"/>
      <path id="패스_847" data-name="패스 847" d="M-1343.88,9.9a2.991,2.991,0,0,0,.88-2.12,2.989,2.989,0,0,0-.88-2.12l.708-.708A3.987,3.987,0,0,1-1342,7.778a3.988,3.988,0,0,1-1.172,2.829Z" transform="translate(2324 96.222)" fill="#fff"/>
    </g>
    <path id="vol" d="M-1343,14.516V2.523h0l-2.814,3H-1349v6h3.188l2.812,3m-.008,1a.978.978,0,0,1-.721-.318l-2.516-2.68H-1349a1,1,0,0,1-1-1v-6a1,1,0,0,1,1-1h2.753l2.518-2.683a1,1,0,0,1,1.729.685V14.517A1,1,0,0,1-1343.007,15.519Z" transform="translate(2320 95.48)" fill="#fff"/>
  </g>
</svg>
