<svg xmlns="http://www.w3.org/2000/svg" width="16" height="16" viewBox="0 0 16 16">
  <path id="_1x_Co_clinic_888" data-name="@1x Co clinic #888" d="M2061-93.5V-94c0-3.847-1.3-6.2-2-6.2-.265,0-.613.332-.944.95A14.277,14.277,0,0,1,2059-94v.5a.5.5,0,0,1-.5.5.5.5,0,0,1-.5-.5V-94c0-4.715-2.108-8-4-8s-4,3.285-4,8v.5a.5.5,0,0,1-.5.5.5.5,0,0,1-.5-.5V-94a14.283,14.283,0,0,1,.944-5.25c-.331-.618-.679-.95-.944-.95-.706,0-2,2.353-2,6.2v.5a.5.5,0,0,1-.5.5.5.5,0,0,1-.5-.5V-94c0-3.976,1.344-7.2,3-7.2a1.881,1.881,0,0,1,1.44.884c.906-1.656,2.165-2.684,3.559-2.684s2.653,1.028,3.56,2.684a1.88,1.88,0,0,1,1.44-.884c1.657,0,3,3.224,3,7.2v.5a.5.5,0,0,1-.5.5A.5.5,0,0,1,2061-93.5Zm-4-10.5a2,2,0,0,1,2-2,2,2,0,0,1,2,2,2,2,0,0,1-2,2A2,2,0,0,1,2057-104Zm1,0a1,1,0,0,0,1,1,1,1,0,0,0,1-1,1,1,0,0,0-1-1A1,1,0,0,0,2058-104Zm-11,0a2,2,0,0,1,2-2,2,2,0,0,1,2,2,2,2,0,0,1-2,2A2,2,0,0,1,2047-104Zm1,0a1,1,0,0,0,1,1,1,1,0,0,0,1-1,1,1,0,0,0-1-1A1,1,0,0,0,2048-104Zm3.5-2.5a2.5,2.5,0,0,1,2.5-2.5,2.5,2.5,0,0,1,2.5,2.5,2.5,2.5,0,0,1-2.5,2.5A2.5,2.5,0,0,1,2051.5-106.5Zm1,0a1.5,1.5,0,0,0,1.5,1.5,1.5,1.5,0,0,0,1.5-1.5,1.5,1.5,0,0,0-1.5-1.5A1.5,1.5,0,0,0,2052.5-106.5Z" transform="translate(-2046 109)" fill="#888"/>
</svg>
