<svg xmlns="http://www.w3.org/2000/svg" width="16" height="16.001" viewBox="0 0 16 16.001">
  <path id="_1x_monitoring_888" data-name="@1x monitoring #888" d="M2207.5,16a.5.5,0,1,1,0-1h1.5V13h-4.5a1.5,1.5,0,0,1-1.5-1.5V1.5a1.5,1.5,0,0,1,1.5-1.5h13a1.5,1.5,0,0,1,1.5,1.5v10a1.5,1.5,0,0,1-1.5,1.5H2213v2h1.5a.5.5,0,1,1,0,1Zm2.5-1h2V13h-2Zm-6-3.5a.5.5,0,0,0,.5.5h13a.5.5,0,0,0,.5-.5V10h-14Zm0-10V9h14V1.5a.5.5,0,0,0-.5-.5h-13A.5.5,0,0,0,2204,1.5Zm6.977,3.242c-.191.858-.469,1.525-1.113,1.525a1.105,1.105,0,0,1-.8-.472,1.12,1.12,0,0,0-.219-.209.815.815,0,0,0-.266.132,1.508,1.508,0,0,1-.824.282h-1.332V5.983a.488.488,0,0,1,0-.967V5h1.332a.64.64,0,0,0,.3-.133,1.48,1.48,0,0,1,.813-.278,1.292,1.292,0,0,1,.941.538l.016.019a9.491,9.491,0,0,0,.34-1.439c.184-1.019.3-1.634.883-1.634.609,0,.688.619.895,2.274.059.488.152,1.239.266,1.794.012-.077.027-.15.039-.214.148-.807.313-1.723,1.1-1.723a2.756,2.756,0,0,1,1.207.411,2.618,2.618,0,0,0,1.07.384H2216a.5.5,0,1,1,0,1h-.379a3.387,3.387,0,0,1-1.531-.5,3.242,3.242,0,0,0-.648-.286,4.708,4.708,0,0,0-.215.887c-.141.763-.3,1.628-1.035,1.628C2211.422,7.734,2211.227,6.709,2210.977,4.742Z" transform="translate(-2203)" fill="#888"/>
</svg>
