<svg xmlns="http://www.w3.org/2000/svg" width="16" height="16.001" viewBox="0 0 16 16.001">
  <path id="_1x_remote_clinic_888" data-name="@1x remote clinic #888" d="M2210.266,15.25a.751.751,0,1,1,.751.752A.751.751,0,0,1,2210.266,15.25Zm2.4-1a.751.751,0,1,1,.751.752A.751.751,0,0,1,2212.671,14.25Zm-4.81,0a.751.751,0,1,1,.751.752A.751.751,0,0,1,2207.861,14.25Zm6.308-1.4a.5.5,0,0,1,0-.707,3.672,3.672,0,0,0,.851-2.646h-.5V7.708c-1.3-.779-2.268-3.069-2.469-6.1a1.511,1.511,0,0,1,1.5-1.611h.464a.5.5,0,1,1,0,1h-.464a.5.5,0,0,0-.365.159.505.505,0,0,0-.138.387c.223,3.368,1.456,5.454,2.47,5.454s2.248-2.086,2.472-5.455a.511.511,0,0,0-.139-.386.5.5,0,0,0-.365-.159h-.463a.5.5,0,1,1,0-1h.463a1.511,1.511,0,0,1,1.5,1.61c-.2,3.028-1.166,5.318-2.469,6.1V9.5h-.5a4.6,4.6,0,0,1-1.146,3.353.5.5,0,0,1-.708,0Zm-7.015,0A4.222,4.222,0,0,1,2206.032,10h-.527V8.837a3.507,3.507,0,1,1,2,0V10h-.472a3.238,3.238,0,0,0,.827,2.147.5.5,0,0,1-.709.707ZM2204,5.5a2.505,2.505,0,1,0,2.5-2.5A2.505,2.505,0,0,0,2204,5.5Z" transform="translate(-2203)" fill="#888"/>
</svg>
