<svg xmlns="http://www.w3.org/2000/svg" width="15.999" height="16" viewBox="0 0 15.999 16">
  <path id="_1x_message_888" data-name="@1x message #888" d="M2206,14.8V14a3,3,0,0,1-3-3V3a3,3,0,0,1,3-3h10a3,3,0,0,1,3,3v8a3,3,0,0,1-3,3h-6.3l-1.646,1.645a1.174,1.174,0,0,1-.841.355A1.2,1.2,0,0,1,2206,14.8ZM2204,3v8a2,2,0,0,0,2,2h1v1.8c0,.2.207.2.209.2a.179.179,0,0,0,.132-.061l1.647-1.646.292-.293H2216a2,2,0,0,0,2-2V3a2,2,0,0,0-2-2h-10A2,2,0,0,0,2204,3Zm10,4a1,1,0,1,1,1,1A1,1,0,0,1,2214,7Zm-4,0a1,1,0,1,1,1,1A1,1,0,0,1,2210,7Zm-4,0a1,1,0,1,1,1,1A1,1,0,0,1,2206,7Z" transform="translate(-2203)" fill="#fff"/>
</svg>
