<svg xmlns="http://www.w3.org/2000/svg" width="23.999" height="32" viewBox="0 0 23.999 32">
  <path id="_2x_MIC" data-name="@2x MIC" d="M-1335,32h-10a1,1,0,0,1-1-1,1,1,0,0,1,1-1h3V25.313A12.02,12.02,0,0,1-1350,14a1,1,0,0,1,1-1,1,1,0,0,1,1,1,9.931,9.931,0,0,0,2.932,7.067A9.938,9.938,0,0,0-1338,24a10.01,10.01,0,0,0,10-10,1,1,0,0,1,1-1,1,1,0,0,1,1,1,12.021,12.021,0,0,1-8,11.313V30h3a1,1,0,0,1,1,1,1,1,0,0,1-1,1Zm-1-2V25.832a12.029,12.029,0,0,1-2,.167,12.028,12.028,0,0,1-2-.167V30Zm-8-16V6a6,6,0,0,1,6-6,6,6,0,0,1,6,6v8a6,6,0,0,1-6,6A6,6,0,0,1-1344,14Zm2-8v8a4.005,4.005,0,0,0,4,4,4,4,0,0,0,4-4V6a4,4,0,0,0-4-4A4.005,4.005,0,0,0-1342,6Z" transform="translate(1350)" fill="#007a94"/>
</svg>
