<svg xmlns="http://www.w3.org/2000/svg" width="17" height="16" viewBox="0 0 17 16">
  <path id="_1x_sorting" data-name="@1x sorting" d="M-1344.45,13h-5.05a.5.5,0,0,1-.5-.5.5.5,0,0,1,.5-.5h5.05a2.5,2.5,0,0,1,2.45-2,2.5,2.5,0,0,1,2.45,2h5.05a.5.5,0,0,1,.5.5.5.5,0,0,1-.5.5h-5.05a2.5,2.5,0,0,1-2.45,2A2.5,2.5,0,0,1-1344.45,13Zm.949-.5A1.5,1.5,0,0,0-1342,14a1.5,1.5,0,0,0,1.5-1.5A1.5,1.5,0,0,0-1342,11,1.5,1.5,0,0,0-1343.5,12.5Zm3.551-4.5h-9.55a.5.5,0,0,1-.5-.5.5.5,0,0,1,.5-.5h9.55a2.5,2.5,0,0,1,2.45-2,2.5,2.5,0,0,1,2.45,2h.55a.5.5,0,0,1,.5.5.5.5,0,0,1-.5.5h-.55a2.5,2.5,0,0,1-2.45,2A2.5,2.5,0,0,1-1339.95,8Zm.949-.5a1.5,1.5,0,0,0,1.5,1.5,1.5,1.5,0,0,0,1.5-1.5,1.5,1.5,0,0,0-1.5-1.5A1.5,1.5,0,0,0-1339,7.5ZM-1348.95,3h-.55a.5.5,0,0,1-.5-.5.5.5,0,0,1,.5-.5h.55a2.5,2.5,0,0,1,2.45-2,2.5,2.5,0,0,1,2.45,2h9.55a.5.5,0,0,1,.5.5.5.5,0,0,1-.5.5h-9.55a2.5,2.5,0,0,1-2.45,2A2.5,2.5,0,0,1-1348.95,3Zm.949-.5a1.5,1.5,0,0,0,1.5,1.5,1.5,1.5,0,0,0,1.5-1.5,1.5,1.5,0,0,0-1.5-1.5A1.5,1.5,0,0,0-1348,2.5Z" transform="translate(1350.5 0.5)" fill="#007a94" stroke="rgba(0,0,0,0)" stroke-width="1"/>
</svg>
